<mxfile host="app.diagrams.net" modified="2023-12-02T11:35:51.329Z" agent="Mozilla/5.0 (Macintosh; Intel Mac OS X 10_15_7) AppleWebKit/605.1.15 (KHTML, like Gecko) Version/17.1 Safari/605.1.15" version="22.1.5" etag="KZpwFAiHjR06S8IaiTkM" type="github">
  <diagram name="Страница — 1" id="m7BVIf2GBczHd-M_XNP0">
    <mxGraphModel>
      <root>
        <mxCell id="0" />
        <mxCell id="1" parent="0" />
      </root>
    </mxGraphModel>
  </diagram>
</mxfile>
